<svg xmlns="http://www.w3.org/2000/svg" version="1.1" xmlns:xlink="http://www.w3.org/1999/xlink" xmlns:svgjs="http://svgjs.dev/svgjs" width="2000" height="900" preserveAspectRatio="none" viewBox="0 0 2000 900"><g mask="url(&quot;#SvgjsMask4005&quot;)" fill="none"><rect width="2000" height="900" x="0" y="0" fill="url(&quot;#SvgjsLinearGradient4006&quot;)"></rect><path d="M77 900L977 0L1778 0L878 900z" fill="url(&quot;#SvgjsLinearGradient4007&quot;)"></path><path d="M721 900L1621 0L2297.5 0L1397.5 900z" fill="url(&quot;#SvgjsLinearGradient4007&quot;)"></path><path d="M1896 900L996 0L594 0L1494 900z" fill="url(&quot;#SvgjsLinearGradient4008&quot;)"></path><path d="M1335 900L435 0L-196.5 0L703.5 900z" fill="url(&quot;#SvgjsLinearGradient4008&quot;)"></path><path d="M1290.3658683762446 900L2000 190.36586837624463L2000 900z" fill="url(&quot;#SvgjsLinearGradient4007&quot;)"></path><path d="M0 900L709.6341316237554 900L 0 190.36586837624463z" fill="url(&quot;#SvgjsLinearGradient4008&quot;)"></path></g><defs><mask id="SvgjsMask4005"><rect width="2000" height="900" fill="#ffffff"></rect></mask><linearGradient x1="13.75%" y1="-30.56%" x2="86.25%" y2="130.56%" gradientUnits="userSpaceOnUse" id="SvgjsLinearGradient4006"><stop stop-color="rgba(14, 25, 71, 1)" offset="0.17"></stop><stop stop-color="rgba(77, 188, 124, 1)" offset="0.78"></stop></linearGradient><linearGradient x1="0%" y1="100%" x2="100%" y2="0%" id="SvgjsLinearGradient4007"><stop stop-color="rgba(19, 60, 183, 0.13)" offset="0"></stop><stop stop-opacity="0" stop-color="rgba(19, 60, 183, 0.13)" offset="0.66"></stop></linearGradient><linearGradient x1="100%" y1="100%" x2="0%" y2="0%" id="SvgjsLinearGradient4008"><stop stop-color="rgba(19, 60, 183, 0.13)" offset="0"></stop><stop stop-opacity="0" stop-color="rgba(19, 60, 183, 0.13)" offset="0.66"></stop></linearGradient></defs></svg>